<svg width="24" height="24" fill="none" xmlns="http://www.w3.org/2000/svg"><g clip-path="url(#a)" stroke="#000" stroke-width="1.5" stroke-linejoin="round"><path d="M12 4.5a1.875 1.875 0 100-3.75 1.875 1.875 0 000 3.75zm-2.426 8.364c.135-.846.196-1.665-.024-2.23-.187-.487-.595-.76-1.087-.945L4.125 8.286C3.563 8.098 3.037 7.784 3 7.163a1.071 1.071 0 011.36-1.125s4.125 1.46 7.64 1.46c3.516 0 7.594-1.453 7.594-1.453C20.438 5.811 21 6.467 21 7.16c0 .666-.515.9-1.125 1.122L15.75 9.778c-.375.14-.984.422-1.219.852-.28.504-.234 1.384-.098 2.231l.277 1.389 1.753 7.683c.131.616-.295 1.192-.91 1.3-.613.108-1.115-.311-1.297-.907l-1.76-5.435c-.085-.26-.16-.524-.226-.79L12 15l-.248 1.015c-.079.323-.17.643-.272.96L9.75 22.32c-.187.602-.68 1.02-1.293.912-.615-.107-1.05-.73-.913-1.3l1.753-7.68.277-1.389z"/></g><defs><clipPath id="a"><path fill="#fff" d="M0 0h24v24H0z"/></clipPath></defs></svg>