<svg width="24" height="24" fill="none" xmlns="http://www.w3.org/2000/svg"><path d="M19.503 12.75a7.5 7.5 0 1 0-15 0 7.5 7.5 0 0 0 15 0zM6.662 4.275A2.188 2.188 0 0 0 5.25 3.75l-.131.004c-1.198.072-2.12 1.121-2.116 2.387 0 .619.218.908.51 1.276a.213.213 0 0 0 .152.083h.041a.151.151 0 0 0 .12-.061L6.673 4.64a.252.252 0 0 0-.012-.366zm10.676 0a2.188 2.188 0 0 1 1.412-.525l.13.004c1.198.072 2.12 1.121 2.116 2.387 0 .619-.218.908-.51 1.276a.214.214 0 0 1-.152.083h-.04a.15.15 0 0 1-.12-.062l-2.848-2.797a.252.252 0 0 1 .012-.366z" stroke="#000" stroke-width="1.5" stroke-miterlimit="10"/><path d="M12.003 7.5v5.25h-3.75m11.25 7.5-1.875-1.875M4.503 20.25l1.875-1.875" stroke="#000" stroke-width="1.5" stroke-linecap="round" stroke-linejoin="round"/></svg>