<svg width="24" height="24" fill="none" xmlns="http://www.w3.org/2000/svg"><path d="M6.75 4.875a1.875 1.875 0 10-3.75 0 1.875 1.875 0 003.75 0zm7.125 0a1.875 1.875 0 10-3.75 0 1.875 1.875 0 003.75 0zm7.125 0a1.875 1.875 0 10-3.75 0 1.875 1.875 0 003.75 0zM6.75 12A1.875 1.875 0 103 12a1.875 1.875 0 003.75 0zm7.125 0a1.875 1.875 0 10-3.75 0 1.875 1.875 0 003.75 0zM21 12a1.875 1.875 0 10-3.75 0A1.875 1.875 0 0021 12zM6.75 19.125a1.875 1.875 0 10-3.75 0 1.875 1.875 0 003.75 0zm7.125 0a1.875 1.875 0 10-3.75 0 1.875 1.875 0 003.75 0zm7.125 0a1.875 1.875 0 10-3.75 0 1.875 1.875 0 003.75 0z" stroke="#000" stroke-width="1.5" stroke-miterlimit="10"/></svg>