<svg width="24" height="24" fill="none" xmlns="http://www.w3.org/2000/svg"><path d="M18.897 4.5H7.353a2.105 2.105 0 00-1.579.716.744.744 0 00-.089.126L1.5 11.613a.75.75 0 000 .774l4.179 6.26a.76.76 0 00.094.136 2.104 2.104 0 001.58.717h11.544A2.105 2.105 0 0021 17.397V6.603A2.106 2.106 0 0018.897 4.5zm-2.584 10.078a.75.75 0 11-1.061 1.06l-2.518-2.513-2.515 2.515a.75.75 0 11-1.062-1.062l2.515-2.516-2.517-2.516a.751.751 0 111.064-1.062l2.516 2.518 2.516-2.518a.75.75 0 111.062 1.062l-2.518 2.516 2.518 2.516z" fill="#000"/></svg>