<svg width="24" height="24" fill="none" xmlns="http://www.w3.org/2000/svg"><path d="M21 12a9.03 9.03 0 001.5-.126A10.5 10.5 0 0012.126 1.5 9.03 9.03 0 0012 3c0 4.963 4.037 9 9 9zm-9.124 10.5A9.243 9.243 0 0012 21.001c0-4.962-4.037-9-9-9a9.03 9.03 0 00-1.5.126A10.5 10.5 0 0011.876 22.5z" fill="#000"/><path d="M13.575 10.425A10.43 10.43 0 0110.5 3c0-.47.031-.94.094-1.406a10.505 10.505 0 00-9 9C2.06 10.53 2.53 10.5 3 10.5a10.43 10.43 0 017.425 3.075A10.43 10.43 0 0113.5 21a10.73 10.73 0 01-.094 1.407 10.506 10.506 0 009-9c-.466.062-.936.093-1.406.093a10.43 10.43 0 01-7.425-3.075z" fill="#000"/></svg>