<svg width="24" height="24" fill="none" xmlns="http://www.w3.org/2000/svg"><path d="M6.563 19.75H4.688A1.687 1.687 0 0 1 3 18.062v-7.125A1.687 1.687 0 0 1 4.688 9.25h1.875a1.687 1.687 0 0 1 1.687 1.688v7.124a1.687 1.687 0 0 1-1.688 1.688zm6.75 0h-1.876a1.687 1.687 0 0 1-1.687-1.688V8.688A1.687 1.687 0 0 1 11.438 7h1.874A1.687 1.687 0 0 1 15 8.688v9.374a1.687 1.687 0 0 1-1.688 1.688zm6.733 0H18.17a1.687 1.687 0 0 1-1.688-1.688V5.688A1.687 1.687 0 0 1 18.171 4h1.875a1.688 1.688 0 0 1 1.687 1.688v12.375a1.687 1.687 0 0 1-1.687 1.687z" fill="#000"/></svg>