<svg width="24" height="24" fill="none" xmlns="http://www.w3.org/2000/svg"><path d="M16.5 9.375v11.25a1.88 1.88 0 01-1.875 1.875h-8.25A1.88 1.88 0 014.5 20.625V10.5" stroke="#000" stroke-width="1.5" stroke-linecap="round" stroke-linejoin="round"/><path d="M16.5 10.5h1.875A2.633 2.633 0 0121 13.125v3.75a2.633 2.633 0 01-2.625 2.625H16.5" stroke="#000" stroke-width="1.5" stroke-miterlimit="10" stroke-linecap="round"/><path d="M10.5 12v7.5m3-7.5v7.5m-6-7.5v7.5M15 5.25a2.25 2.25 0 010 4.5c-.621 0-1.374-.343-1.781-.75H7.5c-.375 1.031-1.266 1.5-2.25 1.5a2.25 2.25 0 010-4.5c.439.018.862.165 1.219.422" stroke="#000" stroke-width="1.5" stroke-linecap="round" stroke-linejoin="round"/><path d="M4.306 6.208A1.875 1.875 0 117.14 3.77s.36.496.36.73m-.664-1.467c.815-.929 1.957-1.533 3.29-1.533 2.455 0 4.406 2.008 4.406 4.463 0 .28-.026.559-.079.834" stroke="#000" stroke-width="1.5" stroke-miterlimit="10" stroke-linecap="round"/></svg>