<svg width="24" height="24" fill="none" xmlns="http://www.w3.org/2000/svg"><path d="M21 2.25H3a1.5 1.5 0 00-1.5 1.5v.75A1.5 1.5 0 003 6h18a1.5 1.5 0 001.5-1.5v-.75a1.5 1.5 0 00-1.5-1.5zM3.49 7.5a.375.375 0 00-.375.414L4.35 19.753v.01a2.25 2.25 0 002.235 1.987h10.832a2.25 2.25 0 002.235-1.987v-.01l1.231-11.84a.374.374 0 00-.375-.413H3.49zm11.666 8.47a.752.752 0 01-.239 1.232.749.749 0 01-.822-.172L12 14.936 9.907 17.03a.75.75 0 01-1.061-1.06l2.095-2.095-2.095-2.095a.75.75 0 011.06-1.06l2.096 2.094 2.094-2.094a.75.75 0 011.06 1.06l-2.094 2.095 2.095 2.095z" fill="#000"/></svg>