<svg width="24" height="24" fill="none" xmlns="http://www.w3.org/2000/svg"><path d="M17.344 17.719c1.354 1.102 2.156 2.16 2.156 4.031M6.656 17.719C5.302 18.82 4.5 19.878 4.5 21.75m13.5-12c1.354-1.102 1.5-2.628 1.5-4.5M6 9.656C4.646 8.554 4.5 7.122 4.5 5.25m17.25 8.256H18m-12 0H2.25M12 9v12" stroke="#000" stroke-width="1.5" stroke-linecap="round" stroke-linejoin="round"/><path d="M12 21c-3.3 0-6-2.7-6-6v-4.503c0-3.05 2.7-4.5 6-4.5s6 1.2 6 4.5V15c0 3.3-2.7 6-6 6z" stroke="#000" stroke-width="1.5" stroke-linecap="round" stroke-linejoin="round"/><path d="M8.41 6.728a2.3 2.3 0 01-.16-.738 3.75 3.75 0 013.74-3.74h.02a3.75 3.75 0 013.74 3.74c-.01.23-.059.457-.146.67" stroke="#000" stroke-width="1.5" stroke-linecap="round" stroke-linejoin="round"/></svg>