<svg width="24" height="24" fill="none" xmlns="http://www.w3.org/2000/svg"><path d="M8.25 19.5v3m-4.5-21h9a1.5 1.5 0 0 1 1.5 1.5v19.313a.188.188 0 0 1-.188.187H2.25V3a1.5 1.5 0 0 1 1.5-1.5v0zM15 9h5.25a1.5 1.5 0 0 1 1.5 1.5v12h-7.5V9.75A.75.75 0 0 1 15 9z" stroke="#000" stroke-width="1.5" stroke-linecap="round" stroke-linejoin="round"/><path d="M4.597 20.244a.75.75 0 1 1-.194-1.488.75.75 0 0 1 .194 1.488zm0-3.75a.75.75 0 1 1-.194-1.488.75.75 0 0 1 .194 1.488zm0-3.75a.75.75 0 1 1-.194-1.488.75.75 0 0 1 .194 1.488zm0-3.75a.75.75 0 1 1-.194-1.487.75.75 0 0 1 .194 1.487zm0-3.75a.75.75 0 1 1-.194-1.487.75.75 0 0 1 .194 1.487zm3.75 11.25a.75.75 0 1 1-.194-1.488.75.75 0 0 1 .194 1.488zm0-3.75a.75.75 0 1 1-.194-1.488.75.75 0 0 1 .194 1.488zm0-3.75a.75.75 0 1 1-.194-1.487.75.75 0 0 1 .194 1.487zm0-3.75a.75.75 0 1 1-.194-1.487.75.75 0 0 1 .194 1.487zm3.75 15a.75.75 0 1 1-.194-1.488.75.75 0 0 1 .194 1.488zm0-3.75a.75.75 0 1 1-.194-1.488.75.75 0 0 1 .194 1.488zm0-3.75a.75.75 0 1 1-.194-1.488.75.75 0 0 1 .194 1.488zM12.532 8.781a.75.75 0 0 0-.003-1.06.75.75 0 0 0-1.06-.003.75.75 0 0 0 .003 1.06.75.75 0 0 0 1.06.003zM12.097 5.244a.75.75 0 1 1-.194-1.488.75.75 0 0 1 .194 1.488zM18.75 18.75a.75.75 0 1 0 0 1.5.75.75 0 0 0 0-1.5zm0-3.75a.75.75 0 1 0 0 1.5.75.75 0 0 0 0-1.5zm0-3.75a.75.75 0 1 0 0 1.5.75.75 0 0 0 0-1.5zm-3 7.5a.75.75 0 1 0 0 1.5.75.75 0 0 0 0-1.5zm0-3.75a.75.75 0 1 0 0 1.5.75.75 0 0 0 0-1.5zm0-3.75a.75.75 0 1 0 0 1.5.75.75 0 0 0 0-1.5z" fill="#000"/></svg>