<svg width="24" height="24" fill="none" xmlns="http://www.w3.org/2000/svg"><path d="M21 18.75H3a.75.75 0 110-1.5h18a.75.75 0 110 1.5zM19.5 21h-15a.75.75 0 110-1.5h15a.75.75 0 110 1.5zm-18-8.25H.75V15a1.5 1.5 0 001.5 1.5H4.5v-.75a3.003 3.003 0 00-3-3z" fill="#000"/><path d="M22.5 11.25h.75v-3h-.75a4.505 4.505 0 01-4.5-4.5V3H6v.75a4.505 4.505 0 01-4.5 4.5H.75v3h.75a4.505 4.505 0 014.5 4.5v.75h12v-.75a4.505 4.505 0 014.5-4.5zm-10.5 3a4.5 4.5 0 110-9 4.5 4.5 0 010 9z" fill="#000"/><path d="M12 12.75a3 3 0 100-6 3 3 0 000 6zm7.5 3v.75h2.25a1.5 1.5 0 001.5-1.5v-2.25h-.75a3.004 3.004 0 00-3 3zm3-9h.75V4.5a1.5 1.5 0 00-1.5-1.5H19.5v.75a3.003 3.003 0 003 3zm-18-3V3H2.25a1.5 1.5 0 00-1.5 1.5v2.25h.75a3.003 3.003 0 003-3z" fill="#000"/></svg>