<svg width="24" height="24" fill="none" xmlns="http://www.w3.org/2000/svg"><path d="M19.5 3.75h-15A2.25 2.25 0 0 0 2.25 6v12a2.25 2.25 0 0 0 2.25 2.25h15A2.25 2.25 0 0 0 21.75 18V6a2.25 2.25 0 0 0-2.25-2.25z" stroke="#000" stroke-width="1.5" stroke-linejoin="round"/><path d="M15.75 9.75a1.5 1.5 0 1 0 0-3 1.5 1.5 0 0 0 0 3z" stroke="#000" stroke-width="1.5" stroke-miterlimit="10"/><path d="M14.25 15.74 10 11.498a1.5 1.5 0 0 0-2.056-.06L2.25 16.5m8.25 3.75 5.782-5.782a1.5 1.5 0 0 1 2.02-.093l3.448 2.875" stroke="#000" stroke-width="1.5" stroke-linecap="round" stroke-linejoin="round"/></svg>