<svg width="24" height="24" fill="none" xmlns="http://www.w3.org/2000/svg"><path d="M18.188 21a4.313 4.313 0 110-8.626 4.313 4.313 0 010 8.626zm0-7.125a2.813 2.813 0 100 5.625 2.813 2.813 0 000-5.625zM5.813 21a4.313 4.313 0 110-8.626 4.313 4.313 0 010 8.626zm0-7.125a2.813 2.813 0 100 5.626 2.813 2.813 0 000-5.626zM15 6a1.495 1.495 0 001.5-1.505A1.478 1.478 0 0015.01 3 1.5 1.5 0 1015 6z" fill="#000"/><path d="M17.229 9h-2.051a.188.188 0 01-.165-.097l-1.488-2.727a1.453 1.453 0 00-2.314-.363l-3.275 3.3c-.275.28-.431.656-.436 1.05 0 .815.59 1.106.867 1.27a148.94 148.94 0 012.793 1.645.188.188 0 01.09.16v3.24c0 .404.31.75.714.77a.751.751 0 00.786-.748v-4.031a.75.75 0 00-.312-.61l-1.735-1.247a.189.189 0 01-.068-.213.189.189 0 01.041-.068l1.969-2.1a.188.188 0 01.3.037l1.024 1.846a.75.75 0 00.656.386h2.625a.749.749 0 00.75-.786.765.765 0 00-.771-.714z" fill="#000"/></svg>