<svg width="24" height="24" fill="none" xmlns="http://www.w3.org/2000/svg"><path d="M12 2.25c-5.376 0-9.75 4.374-9.75 9.75s4.374 9.75 9.75 9.75 9.75-4.374 9.75-9.75S17.376 2.25 12 2.25zm3.501 11.85c-.44.537-1.237 1.395-3.08 2.645a.747.747 0 01-.843 0c-1.843-1.25-2.64-2.11-3.08-2.644-.938-1.142-1.387-2.316-1.373-3.586.014-1.456 1.182-2.64 2.602-2.64.957 0 1.641.498 2.068.956a.282.282 0 00.408 0c.428-.458 1.111-.956 2.068-.956 1.42 0 2.588 1.184 2.603 2.64.014 1.27-.436 2.444-1.373 3.586z" fill="#000"/></svg>