<svg width="24" height="24" fill="none" xmlns="http://www.w3.org/2000/svg"><path d="M20.203 15.028c-.047-.169.056-.403.154-.572.03-.05.063-.098.099-.145a7.594 7.594 0 0 0 1.294-4.233c.014-4.322-3.633-7.828-8.143-7.828-3.932 0-7.214 2.677-7.982 6.23a7.533 7.533 0 0 0-.174 1.603c0 4.326 3.506 7.926 8.016 7.926.717 0 1.683-.215 2.212-.36.53-.146 1.055-.338 1.19-.39a1.237 1.237 0 0 1 .91.014l2.658.943c.058.024.12.04.183.046a.375.375 0 0 0 .375-.375.606.606 0 0 0-.024-.126l-.768-2.733z" stroke="#000" stroke-width="1.5" stroke-miterlimit="10" stroke-linecap="round"/><path d="M3.115 10.875a6.855 6.855 0 0 0 .3 7.156c.108.164.17.29.15.375-.018.085-.559 2.9-.559 2.9a.375.375 0 0 0 .127.36.383.383 0 0 0 .378.056l2.635-1.031a.736.736 0 0 1 .563.009c.888.346 1.87.563 2.851.563a7.463 7.463 0 0 0 3.752-1.008" stroke="#000" stroke-width="1.5" stroke-miterlimit="10" stroke-linecap="round"/></svg>