<svg width="24" height="24" fill="none" xmlns="http://www.w3.org/2000/svg"><path d="M18 10.5v8.625A1.875 1.875 0 0116.125 21H4.875A1.875 1.875 0 013 19.125V7.875A1.875 1.875 0 014.875 6h7.85" stroke="#000" stroke-width="1.5" stroke-linecap="round" stroke-linejoin="round"/><path d="M21.56 2.496a.753.753 0 00-1.089-.026l-.58.577a.375.375 0 000 .53l.532.53a.376.376 0 00.532 0l.565-.562a.762.762 0 00.04-1.049zM18.72 4.22l-8.463 8.447a.421.421 0 00-.108.184l-.391 1.166a.183.183 0 00.227.227l1.165-.391a.42.42 0 00.184-.108l8.447-8.463a.422.422 0 000-.593l-.466-.47a.422.422 0 00-.596 0z" fill="#000"/></svg>