<svg width="24" height="24" fill="none" xmlns="http://www.w3.org/2000/svg"><path d="M20.25 21a.748.748 0 01-.53-.22L3.22 4.28a.75.75 0 011.06-1.06l16.5 16.5a.75.75 0 01-.53 1.28zm-8.625-6.195l-2.428-2.427a.094.094 0 00-.158.079 3.005 3.005 0 002.507 2.507.093.093 0 00.105-.107.094.094 0 00-.026-.052zm.75-5.61l2.431 2.43a.094.094 0 00.16-.08 3.006 3.006 0 00-2.51-2.51.094.094 0 00-.08.16z" fill="#000"/><path d="M23.016 12.814a1.508 1.508 0 00-.005-1.63c-1.24-1.918-2.85-3.547-4.653-4.712-1.999-1.29-4.202-1.972-6.373-1.972a10.62 10.62 0 00-3.367.553.187.187 0 00-.073.31l2.215 2.215a.187.187 0 00.179.049 4.5 4.5 0 015.437 5.438.187.187 0 00.05.178l3.185 3.188a.188.188 0 00.253.01 16.115 16.115 0 003.152-3.627zM12 16.5a4.501 4.501 0 01-4.373-5.56.188.188 0 00-.05-.18L4.444 7.627a.188.188 0 00-.253-.01c-1.144.975-2.204 2.162-3.172 3.549a1.496 1.496 0 00-.03 1.666c1.238 1.937 2.83 3.569 4.606 4.718 2.002 1.295 4.151 1.951 6.39 1.951a11.165 11.165 0 003.405-.541.189.189 0 00.125-.135.187.187 0 00-.05-.177l-2.225-2.224a.188.188 0 00-.178-.05A4.494 4.494 0 0112 16.5z" fill="#000"/></svg>