<svg width="24" height="24" fill="none" xmlns="http://www.w3.org/2000/svg"><path d="M9.563 2.25H3.186a.937.937 0 0 0-.937.938v6.374c0 .518.42.938.938.938h6.374c.518 0 .938-.42.938-.938V3.189a.937.937 0 0 0-.938-.938zM20.813 2.25h-6.375a.937.937 0 0 0-.938.938v6.374c0 .518.42.938.938.938h6.374c.518 0 .938-.42.938-.938V3.189a.937.937 0 0 0-.938-.938zM9.563 13.5H3.186a.937.937 0 0 0-.937.938v6.374c0 .518.42.938.938.938h6.374c.518 0 .938-.42.938-.938v-6.375a.937.937 0 0 0-.938-.937zM20.813 13.5h-6.375a.937.937 0 0 0-.938.938v6.374c0 .518.42.938.938.938h6.374c.518 0 .938-.42.938-.938v-6.375a.937.937 0 0 0-.938-.937z" stroke="#000" stroke-width="1.5" stroke-linecap="round" stroke-linejoin="round"/></svg>