<svg width="24" height="24" fill="none" xmlns="http://www.w3.org/2000/svg"><path d="M3.89 18c-.609-1.547-1.64-4.377-1.64-6C2.25 6.615 7 2.25 12 2.25s9.75 4.365 9.75 9.75c0 1.623-1.078 4.547-1.64 6" stroke="#000" stroke-width="1.5" stroke-linecap="round" stroke-linejoin="round"/><path d="M5.081 12.662l-.642.375c-1.417.83-1.486 3.394-.158 5.728C5.608 21.1 7.837 22.32 9.254 21.49l.642-.375a.758.758 0 00.27-1.025l-4.072-7.152a.736.736 0 00-1.013-.276zm13.838 0l.642.375c1.417.83 1.488 3.394.159 5.728-1.33 2.334-3.557 3.554-4.974 2.724l-.642-.375a.757.757 0 01-.27-1.025l4.073-7.151a.736.736 0 011.012-.276z" stroke="#000" stroke-width="1.5" stroke-miterlimit="10"/></svg>