<svg width="24" height="24" fill="none" xmlns="http://www.w3.org/2000/svg"><path d="M12 3.75a8.25 8.25 0 1 0 0 16.5 8.25 8.25 0 0 0 0-16.5z" stroke="#000" stroke-width="1.5" stroke-miterlimit="10"/><path d="M9.375 9.482s.04-.82.917-1.526c.521-.42 1.146-.541 1.708-.55.512-.006.97.079 1.244.209.468.223 1.381.768 1.381 1.926 0 1.219-.797 1.772-1.705 2.381-.908.61-1.154 1.27-1.154 1.953" stroke="#000" stroke-width="1.313" stroke-miterlimit="10" stroke-linecap="round"/><path d="M11.719 17.25a.937.937 0 1 0 0-1.875.937.937 0 0 0 0 1.875z" fill="#000"/></svg>