<svg width="24" height="24" fill="none" xmlns="http://www.w3.org/2000/svg"><path d="M17.25.75H6.75a3.003 3.003 0 00-3 3v16.5a3.003 3.003 0 003 3h10.5a3.004 3.004 0 003-3V3.75a3.003 3.003 0 00-3-3zm-1.618 12.586c.355.383.528.899.487 1.45-.081 1.1-.92 1.995-1.869 1.995-.95 0-1.79-.895-1.87-1.994-.04-.558.132-1.074.485-1.453.353-.38.841-.584 1.385-.584a1.859 1.859 0 011.382.586zM9 3.75A.75.75 0 019.75 3h4.5a.75.75 0 110 1.5h-4.5A.75.75 0 019 3.75zm8.86 17.055a.564.564 0 01-.437.195h-6.346a.565.565 0 01-.56-.437.609.609 0 01-.006-.27c.153-.823.627-1.515 1.374-2 .662-.43 1.502-.668 2.365-.668.863 0 1.703.237 2.365.668.747.485 1.221 1.177 1.374 2a.609.609 0 01-.13.512z" fill="#000"/></svg>