<svg width="24" height="24" fill="none" xmlns="http://www.w3.org/2000/svg"><path d="M3 12s-.75-.281-.75-1.5C2.25 9.28 3 9 3 9m18 2.531s.75-.203.75-1.031c0-.828-.75-1.031-.75-1.031m-9-1.97v6m-6.75-6v6m13.872-11.05S15.061 7.5 11.25 7.5h-7.5a.75.75 0 00-.75.75v4.5a.75.75 0 00.75.75h7.5c3.81 0 7.872 5.073 7.872 5.073.284.375 1.128.118 1.128-.46V2.905c0-.577-.797-.882-1.128-.458z" stroke="#000" stroke-width="1.5" stroke-linecap="round" stroke-linejoin="round"/><path d="M6.75 13.5v7.875a.375.375 0 00.375.375h2.484a.75.75 0 00.717-.972C9.933 19.518 9 18.098 9 15.75h.75a.75.75 0 00.75-.75v-.75a.75.75 0 00-.75-.75H9" stroke="#000" stroke-width="1.5" stroke-linecap="round" stroke-linejoin="round"/></svg>