<svg width="24" height="24" fill="none" xmlns="http://www.w3.org/2000/svg"><g clip-path="url(#a)" fill="#000"><path d="M18.75 0H8.25a3.005 3.005 0 0 0-2.906 2.25H16.03A3.469 3.469 0 0 1 19.5 5.719V20.01l1.031.825a.75.75 0 0 0 1.219-.605V3a3 3 0 0 0-3-3z"/><path d="M15 3.75H5.25a3 3 0 0 0-3 3v16.482a.767.767 0 0 0 .31.627.75.75 0 0 0 .923-.033l6.642-5.595 6.642 5.593A.75.75 0 0 0 18 23.23V6.75a3 3 0 0 0-3-3z"/></g><defs><clipPath id="a"><path fill="#fff" d="M0 0h24v24H0z"/></clipPath></defs></svg>