<svg width="24" height="24" fill="none" xmlns="http://www.w3.org/2000/svg"><path d="M20.62 5.25h-1.116l-.003.001-.001.003V19.5a1.5 1.5 0 103 0V7.13a1.88 1.88 0 00-1.88-1.88z" fill="#000"/><path d="M18 19.5V3.375A1.875 1.875 0 0016.125 1.5H3.375A1.875 1.875 0 001.5 3.375v16.5A2.625 2.625 0 004.125 22.5h16.071a.053.053 0 00.038-.016.054.054 0 00.005-.07.053.053 0 00-.029-.02A3.004 3.004 0 0118 19.5zM4.5 6a.75.75 0 01.75-.75h3A.75.75 0 019 6v3a.75.75 0 01-.75.75h-3A.75.75 0 014.5 9V6zm9.75 12.75H5.271a.765.765 0 01-.77-.714.75.75 0 01.749-.786h8.979c.404 0 .75.31.77.714a.752.752 0 01-.749.786zm0-3H5.271a.765.765 0 01-.77-.714.75.75 0 01.749-.786h8.979c.404 0 .75.31.77.714a.752.752 0 01-.749.786zm0-3H5.271a.765.765 0 01-.77-.714.75.75 0 01.749-.786h8.979c.404 0 .75.31.77.714a.752.752 0 01-.749.786zm0-3h-2.979a.765.765 0 01-.77-.714.752.752 0 01.749-.786h2.979c.404 0 .75.31.77.714a.752.752 0 01-.749.786zm0-3h-2.979a.765.765 0 01-.77-.714.752.752 0 01.749-.786h2.979c.404 0 .75.31.77.714a.752.752 0 01-.749.786z" fill="#000"/></svg>