<svg width="24" height="24" fill="none" xmlns="http://www.w3.org/2000/svg"><path d="M17.25 19.493V3.375a1.128 1.128 0 00-1.125-1.125H3.375A1.128 1.128 0 002.25 3.375v16.5a1.88 1.88 0 001.875 1.875H19.5" stroke="#000" stroke-width="1.5" stroke-linejoin="round"/><path d="M19.5 21.75a2.25 2.25 0 01-2.25-2.25V6h3.375a1.125 1.125 0 011.125 1.125V19.5a2.25 2.25 0 01-2.25 2.25z" stroke="#000" stroke-width="1.5" stroke-linejoin="round"/><path d="M11.25 6h3m-3 3h3m-9 3h9m-9 3h9m-9 3h9" stroke="#000" stroke-width="1.5" stroke-linecap="round" stroke-linejoin="round"/><path d="M8.25 9.75h-3A.75.75 0 014.5 9V6a.75.75 0 01.75-.75h3A.75.75 0 019 6v3a.75.75 0 01-.75.75z" fill="#000"/></svg>