<svg width="24" height="24" fill="none" xmlns="http://www.w3.org/2000/svg"><path d="M15.938 22.5H4.967c-1.382 0-2.574-.367-3.446-1.061C.526 20.646 0 19.469 0 18.038c0-1.38.567-2.543 1.64-3.363.568-.434 1.276-.758 2.032-.94a.751.751 0 0 0 .553-.572c.335-1.526 1.043-2.836 2.078-3.833a6.554 6.554 0 0 1 4.572-1.83c1.515 0 2.913.5 4.043 1.443a6.665 6.665 0 0 1 1.764 2.322.754.754 0 0 0 .522.422c1.125.245 2.129.74 2.888 1.433 1.085.99 1.658 2.34 1.658 3.905 0 1.54-.616 2.947-1.734 3.962-1.073.976-2.522 1.513-4.078 1.513zM23.93 9.834a.766.766 0 0 0-.063-.74.75.75 0 0 0-.917-.262c-.502.218-1.148.336-1.872.341-2.592.019-4.752-2.11-4.752-4.702 0-.738.116-1.399.337-1.91a.765.765 0 0 0-.087-.766.75.75 0 0 0-.895-.235c-1.811.789-3.103 2.415-3.529 4.338a.186.186 0 0 0 .08.197.187.187 0 0 0 .07.028A7.619 7.619 0 0 1 15.88 7.79a8.089 8.089 0 0 1 1.858 2.243.766.766 0 0 0 .447.358c1.12.336 2.114.886 2.918 1.619.139.127.271.259.398.395a.188.188 0 0 0 .241.026 6.052 6.052 0 0 0 2.19-2.598z" fill="#000"/></svg>