<svg width="24" height="24" fill="none" xmlns="http://www.w3.org/2000/svg"><g clip-path="url(#a)"><path d="M12.184 12.324l-2.04-5.304a.422.422 0 00-.788 0l-2.04 5.304a.422.422 0 01-.242.242l-5.304 2.04a.422.422 0 000 .788l5.304 2.04a.421.421 0 01.242.242l2.04 5.304a.421.421 0 00.788 0l2.04-5.304a.42.42 0 01.242-.242l5.304-2.04a.421.421 0 000-.788l-5.304-2.04a.42.42 0 01-.242-.242zM5.063 3.188L4.125.75l-.938 2.438-2.437.937 2.438.938.937 2.437.938-2.438L7.5 4.125l-2.438-.938zM20 5.5l-1.25-3.25L17.5 5.5l-3.25 1.25L17.5 8l1.25 3.25L20 8l3.25-1.25L20 5.5z" stroke="#000" stroke-width="1.5" stroke-linecap="round" stroke-linejoin="round"/></g><defs><clipPath id="a"><path fill="#fff" d="M0 0h24v24H0z"/></clipPath></defs></svg>