<svg width="24" height="24" fill="none" xmlns="http://www.w3.org/2000/svg"><path d="M4.875 7.5a2.625 2.625 0 1 1 0-5.25 2.625 2.625 0 0 1 0 5.25zM12 7.5a2.625 2.625 0 1 1 0-5.25 2.625 2.625 0 0 1 0 5.25zm7.125 0a2.625 2.625 0 1 1 0-5.25 2.625 2.625 0 0 1 0 5.25zm-14.25 7.125a2.625 2.625 0 1 1 0-5.25 2.625 2.625 0 0 1 0 5.25zm7.125 0a2.625 2.625 0 1 1 0-5.25 2.625 2.625 0 0 1 0 5.25zm7.125 0a2.625 2.625 0 1 1 0-5.25 2.625 2.625 0 0 1 0 5.25zM4.875 21.75a2.625 2.625 0 1 1 0-5.25 2.625 2.625 0 0 1 0 5.25zm7.125 0a2.625 2.625 0 1 1 0-5.25 2.625 2.625 0 0 1 0 5.25zm7.125 0a2.625 2.625 0 1 1 0-5.25 2.625 2.625 0 0 1 0 5.25z" fill="#000"/></svg>