<svg width="24" height="24" fill="none" xmlns="http://www.w3.org/2000/svg"><path d="M19.125 3H4.875A2.633 2.633 0 0 0 2.25 5.625v9a2.633 2.633 0 0 0 2.625 2.625H6.75V21l4.393-3.663a.375.375 0 0 1 .24-.087h7.742a2.633 2.633 0 0 0 2.625-2.625v-9A2.633 2.633 0 0 0 19.125 3z" stroke="#000" stroke-width="1.5" stroke-linejoin="round"/><path d="M7.5 11.625a1.5 1.5 0 1 0 0-3 1.5 1.5 0 0 0 0 3zM12 11.625a1.5 1.5 0 1 0 0-3 1.5 1.5 0 0 0 0 3zM16.5 11.625a1.5 1.5 0 1 0 0-3 1.5 1.5 0 0 0 0 3z" fill="#000"/></svg>