<svg width="24" height="24" fill="none" xmlns="http://www.w3.org/2000/svg"><path d="M2.25 8.25v.03a.815.815 0 0 1-.197.527v.003c-.253.299-.553.834-.553 1.69 0 .776.248 1.323.547 1.683a.89.89 0 0 1 .203.567 1.5 1.5 0 0 0 1.5 1.5h.375a.375.375 0 0 0 .375-.375v-6.75a.375.375 0 0 0-.375-.375H3.75a1.5 1.5 0 0 0-1.5 1.5zm18.946.495-.044-.008A.188.188 0 0 1 21 8.552V2.906c0-.592-.393-1.125-.98-1.327-.558-.193-1.14-.036-1.484.4a20.217 20.217 0 0 1-2.405 2.423c-1.108.937-2.168 1.605-3.141 1.983a.375.375 0 0 0-.241.35v7.28a.75.75 0 0 0 .454.69c.906.388 1.886 1.022 2.906 1.887a20.344 20.344 0 0 1 2.423 2.445 1.228 1.228 0 0 0 .989.463c.166 0 .331-.028.489-.082.601-.2.99-.713.99-1.305v-5.666a.187.187 0 0 1 .156-.185l.04-.007c.45-.122 1.304-.646 1.304-1.755 0-1.11-.853-1.633-1.304-1.755zM11.25 15V7.125a.375.375 0 0 0-.375-.375h-4.5A.375.375 0 0 0 6 7.125v14.25A1.125 1.125 0 0 0 7.125 22.5h2.459a1.532 1.532 0 0 0 1.215-.584 1.484 1.484 0 0 0 .244-1.361c-.076-.243-.17-.516-.27-.806-.371-1.074-.86-1.738-.99-3.25A1.5 1.5 0 0 0 11.25 15z" fill="#000"/></svg>