<svg width="24" height="24" fill="none" xmlns="http://www.w3.org/2000/svg"><g clip-path="url(#a)"><path d="M9.75 24a1.164 1.164 0 0 1-1.094-.75l-1.868-4.856a.753.753 0 0 0-.43-.43L1.5 16.093a1.172 1.172 0 0 1 0-2.188l4.856-1.867a.754.754 0 0 0 .43-.431l1.87-4.858a1.172 1.172 0 0 1 2.188 0l1.867 4.856a.754.754 0 0 0 .431.431l4.828 1.858a1.195 1.195 0 0 1 .78 1.13 1.164 1.164 0 0 1-.75 1.07l-4.856 1.867a.754.754 0 0 0-.431.43l-1.869 4.858A1.165 1.165 0 0 1 9.75 24zM4.125 8.25a.688.688 0 0 1-.642-.44l-.79-2.056a.341.341 0 0 0-.197-.197L.44 4.767a.688.688 0 0 1 0-1.284l2.055-.79a.343.343 0 0 0 .197-.197L3.476.459a.703.703 0 0 1 .566-.454.688.688 0 0 1 .725.436l.79 2.055a.343.343 0 0 0 .197.197l2.055.79a.688.688 0 0 1 0 1.284l-2.055.79a.341.341 0 0 0-.197.197l-.79 2.055a.688.688 0 0 1-.642.441zM18.75 12a.75.75 0 0 1-.7-.48l-1.07-2.784a.374.374 0 0 0-.216-.215L13.98 7.45a.75.75 0 0 1 0-1.4l2.783-1.07a.374.374 0 0 0 .215-.216l1.063-2.763a.771.771 0 0 1 .617-.496.75.75 0 0 1 .79.476l1.071 2.783a.374.374 0 0 0 .216.216l2.783 1.07a.75.75 0 0 1 0 1.4l-2.783 1.07a.375.375 0 0 0-.216.216l-1.07 2.783a.75.75 0 0 1-.7.481z" fill="#000"/></g><defs><clipPath id="a"><path fill="#fff" d="M0 0h24v24H0z"/></clipPath></defs></svg>