<svg width="24" height="24" fill="none" xmlns="http://www.w3.org/2000/svg"><path d="M19.425 4.575a10.499 10.499 0 1 0-14.85 14.85 10.499 10.499 0 1 0 14.85-14.85zm-10.418 7.62a3 3 0 1 1 5.987-.39 3 3 0 0 1-5.987.39zm11.25-3.123-4.518.274a.19.19 0 0 1-.161-.075 4.5 4.5 0 0 0-.847-.847.19.19 0 0 1-.075-.16l.274-4.518a.188.188 0 0 1 .254-.165 9.047 9.047 0 0 1 5.235 5.237.188.188 0 0 1-.164.254h.002zM9.072 3.746l.273 4.517a.19.19 0 0 1-.074.161 4.5 4.5 0 0 0-.847.847.19.19 0 0 1-.161.075l-4.518-.274a.187.187 0 0 1-.164-.254 9.047 9.047 0 0 1 5.237-5.237.187.187 0 0 1 .254.165zM3.746 14.928l4.518-.274a.19.19 0 0 1 .16.075c.244.318.529.603.848.847a.19.19 0 0 1 .074.16l-.273 4.518a.187.187 0 0 1-.254.165 9.048 9.048 0 0 1-5.237-5.237.187.187 0 0 1 .164-.254zm11.182 5.326-.274-4.517a.19.19 0 0 1 .075-.161c.319-.244.604-.529.847-.848a.19.19 0 0 1 .161-.074l4.518.274a.188.188 0 0 1 .164.254 9.05 9.05 0 0 1-5.237 5.237.188.188 0 0 1-.254-.165z" fill="#000"/></svg>