<svg width="24" height="24" fill="none" xmlns="http://www.w3.org/2000/svg"><path d="M12 21.75c5.385 0 9.75-4.365 9.75-9.75S17.385 2.25 12 2.25 2.25 6.615 2.25 12s4.365 9.75 9.75 9.75z" stroke="#000" stroke-width="1.5" stroke-linecap="round" stroke-linejoin="round"/><path d="M12 15.75a3.75 3.75 0 1 0 0-7.5 3.75 3.75 0 0 0 0 7.5zM9.75 2.531l.375 6.188m3.75 0 .375-6.188M9.75 21.47l.375-6.188m3.75 0 .375 6.188M21.469 9.75l-6.188.375m0 3.75 6.188.375M2.53 9.75l6.188.375m0 3.75-6.188.375" stroke="#000" stroke-width="1.5" stroke-linecap="round" stroke-linejoin="round"/></svg>