<svg width="24" height="24" fill="none" xmlns="http://www.w3.org/2000/svg"><path d="M22.203 9.844a6.221 6.221 0 0 0-2.314-1.037.755.755 0 0 1-.571-.572c-.366-1.63-1.153-3.026-2.31-4.085C15.663 2.918 13.885 2.24 12 2.24c-1.657 0-3.188.52-4.424 1.503a7.035 7.035 0 0 0-1.971 2.484.75.75 0 0 1-.53.416c-1.254.253-2.386.79-3.25 1.552C.63 9.25 0 10.652 0 12.253c0 1.618.68 3.094 1.912 4.16C3.09 17.43 4.675 17.99 6.375 17.99h4.875v-7.189l-1.72 1.72a.75.75 0 0 1-1.085-.026.764.764 0 0 1 .04-1.05L11.47 8.46a.75.75 0 0 1 1.06 0l2.986 2.984c.294.295.31.778.018 1.074a.751.751 0 0 1-1.063.003L12.75 10.8v7.19h5.813c1.469 0 2.808-.413 3.77-1.162 1.09-.848 1.667-2.062 1.667-3.508 0-1.403-.622-2.606-1.797-3.477zM11.25 21.01a.75.75 0 1 0 1.5 0v-3.02h-1.5v3.02z" fill="#000"/></svg>