<svg width="24" height="24" fill="none" xmlns="http://www.w3.org/2000/svg"><g clip-path="url(#a)"><path d="M.96 4.464a.96.96 0 0 0-.96.96v13.152c0 .53.43.96.96.96h22.08c.53 0 .96-.43.96-.96V5.424a.96.96 0 0 0-.96-.96H.96zm13.374 4.492c.584 0 1.052.129 1.35.249l-.203 1.283-.135-.068a2.62 2.62 0 0 0-1.128-.227c-.59 0-.863.263-.863.509-.003.277.319.46.845.734.87.423 1.271.935 1.266 1.609-.012 1.23-1.04 2.023-2.624 2.023-.675-.007-1.326-.15-1.678-.315l.211-1.326.194.094c.495.221.816.31 1.419.31.433 0 .898-.18.901-.578.003-.259-.194-.444-.78-.734-.572-.283-1.33-.758-1.321-1.609.009-1.15 1.057-1.954 2.546-1.954zm-12.212.188h2.433c.327.012.592.118.683.473l.524 2.706v.002l.158.81 1.476-3.99h1.598l-2.375 5.842-1.596.001-1.27-4.714c.756.4 1.4.864 1.772 1.501a4.232 4.232 0 0 0-.384-.654c-.19-.261-.597-.599-.767-.742-.594-.5-1.4-.905-2.27-1.119l.018-.116zm7.507.007h1.563l-.978 5.833H8.652l.977-5.833zm8.824 0h1.184l1.238 5.833h-1.42s-.14-.67-.187-.874l-1.96-.002c-.06.157-.323.876-.323.876h-1.607l2.273-5.349c.161-.38.436-.484.802-.484zm.116 1.569c-.077.217-.21.567-.201.552l-.607 1.615h1.264l-.353-1.67-.103-.497z" fill="#000"/></g><defs><clipPath id="a"><path fill="#fff" d="M0 0h24v24H0z"/></clipPath></defs></svg>