<svg width="24" height="24" fill="none" xmlns="http://www.w3.org/2000/svg"><path d="M7.2 5.178a1.004 1.004 0 00-.053-1.475A2.938 2.938 0 005.25 3l-.154.004h-.022C3.487 3.101 2.25 4.48 2.253 6.141c0 .89.375 1.362.671 1.74a.966.966 0 00.69.365c.011 0 .032.002.093.002a.893.893 0 00.645-.276l2.847-2.794zm11.727-2.173L18.774 3h-.024a2.938 2.938 0 00-1.9.704 1.004 1.004 0 00-.052 1.473l2.849 2.796a.894.894 0 00.646.277c.06 0 .08 0 .094-.002a.966.966 0 00.689-.366c.298-.377.669-.847.67-1.74.004-1.663-1.234-3.041-2.819-3.137z" fill="#000"/><path d="M12.004 4.5c-4.547 0-8.25 3.7-8.25 8.25a8.214 8.214 0 001.913 5.276L3.973 19.72a.75.75 0 101.061 1.06l1.693-1.693a8.233 8.233 0 0010.553 0l1.694 1.693a.75.75 0 101.06-1.06l-1.693-1.694a8.21 8.21 0 001.913-5.276c0-4.547-3.701-8.25-8.25-8.25zm.75 8.25a.75.75 0 01-.75.75h-3.75a.75.75 0 110-1.5h3V7.5a.75.75 0 111.5 0v5.25z" fill="#000"/></svg>