<svg width="24" height="24" fill="none" xmlns="http://www.w3.org/2000/svg"><path d="M3 7.688v11.437a2.625 2.625 0 002.625 2.625h12.75A2.625 2.625 0 0021 19.125V7.687a.188.188 0 00-.188-.187H3.188A.187.187 0 003 7.688zm12.516 7.107L12.53 17.78a.75.75 0 01-1.06 0l-2.986-2.985a.764.764 0 01-.04-1.049.75.75 0 011.086-.026l1.72 1.72v-4.92c0-.404.31-.75.714-.77a.75.75 0 01.786.749v4.94l1.72-1.72a.75.75 0 011.085.026.764.764 0 01-.04 1.05zM21 2.25H3a1.5 1.5 0 00-1.5 1.5v.75A1.5 1.5 0 003 6h18a1.5 1.5 0 001.5-1.5v-.75a1.5 1.5 0 00-1.5-1.5z" fill="#000"/></svg>