<svg width="24" height="24" fill="none" xmlns="http://www.w3.org/2000/svg"><path d="M20.25 8.25H15V3A2.25 2.25 0 0012.75.75h-9A2.25 2.25 0 001.5 3v19.5a.75.75 0 00.75.75h4.875a.375.375 0 00.375-.375v-3.354c0-.404.31-.75.714-.77A.752.752 0 019 19.5v3.375a.375.375 0 00.375.375H21.75a.75.75 0 00.75-.75v-12a2.25 2.25 0 00-2.25-2.25zM4.598 20.244a.75.75 0 11-.195-1.488.75.75 0 01.195 1.488zm0-3.75a.75.75 0 11-.195-1.488.75.75 0 01.195 1.488zm0-3.75a.75.75 0 11-.195-1.488.75.75 0 01.195 1.488zm0-3.75a.75.75 0 11-.195-1.487.75.75 0 01.195 1.487zm0-3.75a.75.75 0 11-.195-1.487.75.75 0 01.195 1.487zm3.75 11.25a.75.75 0 11-.195-1.488.75.75 0 01.194 1.488zm0-3.75a.75.75 0 11-.195-1.488.75.75 0 01.194 1.488zm0-3.75a.75.75 0 11-.195-1.487.75.75 0 01.194 1.487zm0-3.75a.75.75 0 11-.195-1.487.75.75 0 01.194 1.487zm3.75 15a.75.75 0 11-.195-1.488.75.75 0 01.194 1.488zm0-3.75a.75.75 0 11-.195-1.488.75.75 0 01.194 1.488zm0-3.75a.75.75 0 11-.195-1.488.75.75 0 01.194 1.488zm0-3.75a.75.75 0 11-.195-1.487.75.75 0 01.194 1.487zm0-3.75a.75.75 0 11-.195-1.487.75.75 0 01.194 1.487zm8.714 16.506H15v-12h5.25a.75.75 0 01.75.75v11.063a.188.188 0 01-.188.187z" fill="#000"/><path d="M18.75 18.75a.75.75 0 100 1.5.75.75 0 000-1.5zm0-3.75a.75.75 0 100 1.5.75.75 0 000-1.5zm0-3.75a.75.75 0 100 1.5.75.75 0 000-1.5zm-3 7.5a.75.75 0 100 1.5.75.75 0 000-1.5zm0-3.75a.75.75 0 100 1.5.75.75 0 000-1.5zm0-3.75a.75.75 0 100 1.5.75.75 0 000-1.5z" fill="#000"/></svg>