<svg width="24" height="24" fill="none" xmlns="http://www.w3.org/2000/svg"><path d="M21 6.857a2.571 2.571 0 0 0-2.571-2.571h-.643V3.66a.655.655 0 0 0-.612-.66.643.643 0 0 0-.674.642v.643h-9V3.66a.655.655 0 0 0-.612-.66.643.643 0 0 0-.674.642v.643h-.643A2.571 2.571 0 0 0 3 6.857v.482a.16.16 0 0 0 .16.161h17.68a.16.16 0 0 0 .16-.16v-.483zM3 18.43A2.571 2.571 0 0 0 5.571 21H18.43A2.571 2.571 0 0 0 21 18.43V8.906a.12.12 0 0 0-.12-.12H3.12a.12.12 0 0 0-.12.12v9.523zm13.821-8.357a.964.964 0 1 1 0 1.928.964.964 0 0 1 0-1.928zm0 3.214a.964.964 0 1 1 0 1.928.964.964 0 0 1 0-1.928zm-3.214-3.214a.964.964 0 1 1 0 1.928.964.964 0 0 1 0-1.928zm0 3.214a.964.964 0 1 1 0 1.928.964.964 0 0 1 0-1.928zm0 3.214a.964.964 0 1 1 0 1.928.964.964 0 0 1 0-1.928zm-3.214-3.214a.964.964 0 1 1 0 1.928.964.964 0 0 1 0-1.928zm0 3.214a.964.964 0 1 1 0 1.928.964.964 0 0 1 0-1.928zm-3.214-3.214a.964.964 0 1 1 0 1.928.964.964 0 0 1 0-1.928zm0 3.214a.964.964 0 1 1 0 1.928.964.964 0 0 1 0-1.928z" fill="#000"/></svg>