<svg width="22" height="22" fill="none" xmlns="http://www.w3.org/2000/svg"><path d="M19.25 6.286a2.357 2.357 0 00-2.357-2.357h-.59v-.573a.6.6 0 00-.56-.605.589.589 0 00-.618.588v.59h-8.25v-.573a.6.6 0 00-.56-.605.59.59 0 00-.619.588v.59h-.589A2.357 2.357 0 002.75 6.286v.442a.147.147 0 00.147.147h16.206a.147.147 0 00.147-.147v-.442zM2.75 16.893a2.357 2.357 0 002.357 2.357h11.786a2.357 2.357 0 002.357-2.357V8.164a.11.11 0 00-.11-.11H2.86a.11.11 0 00-.11.11v8.729zm12.67-7.66a.884.884 0 110 1.766.884.884 0 010-1.767zm0 2.945a.884.884 0 110 1.768.884.884 0 010-1.768zm-2.947-2.946a.884.884 0 110 1.768.884.884 0 010-1.768zm0 2.947a.884.884 0 110 1.768.884.884 0 010-1.768zm0 2.946a.884.884 0 110 1.769.884.884 0 010-1.77zm-2.946-2.947a.884.884 0 110 1.77.884.884 0 010-1.77zm0 2.947a.884.884 0 110 1.769.884.884 0 010-1.77zM6.58 12.178a.884.884 0 110 1.769.884.884 0 010-1.768zm0 2.947a.884.884 0 110 1.768.884.884 0 010-1.768z" fill="#8DD3BB"/></svg>