<svg width="24" height="24" fill="none" xmlns="http://www.w3.org/2000/svg"><path d="M19.5 3.75h-15A2.25 2.25 0 002.25 6v13.5a2.25 2.25 0 002.25 2.25h15a2.25 2.25 0 002.25-2.25V6a2.25 2.25 0 00-2.25-2.25z" stroke="#000" stroke-width="1.5" stroke-linejoin="round"/><path d="M13.875 12a1.125 1.125 0 100-2.25 1.125 1.125 0 000 2.25zm3.75 0a1.125 1.125 0 100-2.25 1.125 1.125 0 000 2.25zm-3.75 3.75a1.125 1.125 0 100-2.25 1.125 1.125 0 000 2.25zm3.75 0a1.125 1.125 0 100-2.25 1.125 1.125 0 000 2.25zm-11.25 0a1.125 1.125 0 100-2.25 1.125 1.125 0 000 2.25zm3.75 0a1.125 1.125 0 100-2.25 1.125 1.125 0 000 2.25zm-3.75 3.75a1.125 1.125 0 100-2.25 1.125 1.125 0 000 2.25zm3.75 0a1.125 1.125 0 100-2.25 1.125 1.125 0 000 2.25zm3.75 0a1.125 1.125 0 100-2.25 1.125 1.125 0 000 2.25z" fill="#000"/><path d="M6 2.25v1.5m12-1.5v1.5" stroke="#000" stroke-width="1.5" stroke-linecap="round" stroke-linejoin="round"/><path d="M21.75 7.5H2.25" stroke="#000" stroke-width="1.5" stroke-linejoin="round"/></svg>