<svg width="24" height="24" fill="none" xmlns="http://www.w3.org/2000/svg"><path d="M2.25 15.75h19.5a.75.75 0 00.75-.75V4.5a.75.75 0 00-.75-.75H2.25a.75.75 0 00-.75.75V15c0 .414.336.75.75.75z" stroke="#000" stroke-width="1.5" stroke-linejoin="round"/><path d="M3 18h18M4.5 20.25h15M12 13.5A3.75 3.75 0 1012 6a3.75 3.75 0 000 7.5zm10.5-6a3.75 3.75 0 01-3.75-3.75M1.5 7.5a3.75 3.75 0 003.75-3.75M22.5 12a3.75 3.75 0 00-3.75 3.75M1.5 12a3.75 3.75 0 013.75 3.75" stroke="#000" stroke-width="1.5" stroke-linecap="round" stroke-linejoin="round"/></svg>