<svg width="24" height="24" fill="none" xmlns="http://www.w3.org/2000/svg"><path d="M4.1 17.813c.057-.206-.066-.491-.184-.697a2.007 2.007 0 00-.12-.178 9.366 9.366 0 01-1.546-5.156C2.233 6.52 6.596 2.25 11.992 2.25c4.705 0 8.633 3.26 9.55 7.587a9.28 9.28 0 01.208 1.952c0 5.269-4.195 9.606-9.59 9.606-.858 0-2.016-.216-2.647-.393a17.716 17.716 0 01-1.425-.474A1.46 1.46 0 007 20.545l-3.18 1.148a.748.748 0 01-.218.057.45.45 0 01-.45-.457.744.744 0 01.029-.154l.92-3.326z" stroke="#000" stroke-width="1.5" stroke-miterlimit="10" stroke-linecap="round"/><path d="M7.5 13.5a1.5 1.5 0 100-3 1.5 1.5 0 000 3zm4.5 0a1.5 1.5 0 100-3 1.5 1.5 0 000 3zm4.5 0a1.5 1.5 0 100-3 1.5 1.5 0 000 3z" fill="#000"/></svg>