<svg width="24" height="24" fill="none" xmlns="http://www.w3.org/2000/svg"><path d="M21.56 2.496a.753.753 0 00-1.089-.026l-.58.577a.375.375 0 000 .53l.532.53a.376.376 0 00.532 0l.565-.562a.762.762 0 00.04-1.049zM18.72 4.22l-8.463 8.447a.421.421 0 00-.108.184l-.391 1.166a.183.183 0 00.227.227l1.165-.391a.42.42 0 00.184-.108l8.447-8.463a.422.422 0 000-.593l-.466-.47a.422.422 0 00-.596 0z" fill="#000"/><path d="M18.11 9.078l-5.714 5.725c-.22.221-.492.385-.79.478l-1.215.407a1.684 1.684 0 01-2.078-2.078l.407-1.214c.092-.299.256-.57.477-.791l5.725-5.715a.375.375 0 00-.265-.64H4.875A2.625 2.625 0 002.25 7.875v11.25a2.625 2.625 0 002.625 2.625h11.25a2.625 2.625 0 002.625-2.625V9.343a.375.375 0 00-.64-.265z" fill="#000"/></svg>