<svg width="24" height="24" fill="none" xmlns="http://www.w3.org/2000/svg"><path d="M12.305 9.573l-9.024 9.022c-.583.584-1.031 3.155-1.031 3.155s2.55-.426 3.155-1.031l9.023-9.023" stroke="#000" stroke-width="1.5" stroke-linecap="round" stroke-linejoin="round"/><path d="M17.612 10.634l-4.246-4.246a1.501 1.501 0 10-2.123 2.123l4.246 4.246a1.501 1.501 0 102.123-2.123z" stroke="#000" stroke-width="1.5" stroke-linecap="round" stroke-linejoin="round"/><path d="M13.59 6.61s.964.401 1.745-.38l2.562-3.31c.867-.91 2.31-.876 3.185 0a2.23 2.23 0 010 3.184l-3.313 2.563c-.734.733-.38 1.744-.38 1.744M5.406 20.72s-1.24.813-2.088-.035c-.848-.847-.035-2.09-.035-2.09" stroke="#000" stroke-width="1.5" stroke-linecap="round" stroke-linejoin="round"/></svg>