<svg width="24" height="24" fill="none" xmlns="http://www.w3.org/2000/svg"><path d="M20.438 3.75H3.563A2.065 2.065 0 001.5 5.813v12.375a2.065 2.065 0 002.063 2.062h16.875a2.064 2.064 0 002.062-2.063V5.813a2.065 2.065 0 00-2.063-2.062zM5.25 18.188a.562.562 0 01-.563.562H3.563A.563.563 0 013 18.187v-1.125a.562.562 0 01.563-.562h1.124a.563.563 0 01.563.563v1.125zm0-3.75a.562.562 0 01-.563.562H3.563A.563.563 0 013 14.437v-1.124a.562.562 0 01.563-.563h1.124a.563.563 0 01.563.563v1.124zm0-3.75a.562.562 0 01-.563.562H3.563A.563.563 0 013 10.687V9.563A.563.563 0 013.563 9h1.124a.563.563 0 01.563.563v1.124zm0-3.75a.563.563 0 01-.563.562H3.563A.563.563 0 013 6.937V5.813a.563.563 0 01.563-.562h1.124a.563.563 0 01.563.563v1.125zm11.329 5.812H7.42a.75.75 0 110-1.5h9.158a.75.75 0 110 1.5zM21 18.188a.562.562 0 01-.563.562h-1.125a.562.562 0 01-.562-.563v-1.125a.562.562 0 01.563-.562h1.125a.562.562 0 01.562.563v1.125zm0-3.75a.562.562 0 01-.563.562h-1.125a.562.562 0 01-.562-.563v-1.124a.562.562 0 01.563-.563h1.125a.562.562 0 01.562.563v1.124zm0-3.75a.562.562 0 01-.563.562h-1.125a.562.562 0 01-.562-.563V9.563A.563.563 0 0119.313 9h1.125a.562.562 0 01.562.563v1.124zm0-3.75a.563.563 0 01-.563.562h-1.125a.562.562 0 01-.562-.563V5.813a.563.563 0 01.563-.562h1.125a.562.562 0 01.562.563v1.125z" fill="#000"/></svg>