<svg width="24" height="24" fill="none" xmlns="http://www.w3.org/2000/svg"><path d="M21.203 17.11l-5.856-9.276A2.253 2.253 0 0115 6.632V3h.73c.403 0 .75-.31.77-.714a.751.751 0 00-.75-.786H8.271c-.403 0-.75.31-.77.714a.75.75 0 00.75.786H9v3.632c0 .425-.12.842-.348 1.201L2.798 17.11a3.469 3.469 0 00-.117 3.555c.621 1.142 1.836 1.836 3.138 1.836h12.363c1.302 0 2.517-.694 3.138-1.838a3.468 3.468 0 00-.117-3.553zM9.922 8.633a3.742 3.742 0 00.578-2.002V3.188A.188.188 0 0110.688 3h2.625a.188.188 0 01.187.188v3.444c0 .709.2 1.403.58 2.002l2.709 4.29a.376.376 0 01-.318.576H7.53a.375.375 0 01-.317-.575l2.709-4.29z" fill="#000"/></svg>