<svg width="24" height="24" fill="none" xmlns="http://www.w3.org/2000/svg"><path d="M17.25 1.5H6.75A2.25 2.25 0 004.5 3.75v16.5a2.25 2.25 0 002.25 2.25h10.5a2.25 2.25 0 002.25-2.25V3.75a2.25 2.25 0 00-2.25-2.25z" stroke="#000" stroke-width="1.5" stroke-linejoin="round"/><path d="M9.75 3.75h4.5" stroke="#000" stroke-width="1.5" stroke-linecap="round" stroke-linejoin="round"/><path d="M15.632 13.336a1.86 1.86 0 00-1.382-.586c-.544 0-1.036.207-1.385.583s-.525.896-.484 1.453c.08 1.1.918 1.995 1.869 1.995.95 0 1.788-.895 1.869-1.994a1.897 1.897 0 00-.487-1.45zM17.422 21h-6.345a.565.565 0 01-.56-.437.61.61 0 01-.006-.27c.153-.823.627-1.515 1.374-2 .662-.43 1.502-.668 2.365-.668.863 0 1.703.237 2.365.668.747.485 1.221 1.177 1.374 2a.61.61 0 01-.13.512.566.566 0 01-.436.195z" fill="#000"/></svg>