<svg width="22" height="22" fill="none" xmlns="http://www.w3.org/2000/svg"><path d="M6.958 4.959a1.837 1.837 0 010-2.594 1.837 1.837 0 012.594 0 1.837 1.837 0 010 2.594 1.82 1.82 0 01-2.594 0zM5.5 14.666V7.333a.92.92 0 00-.916-.916.92.92 0 00-.917.916v7.333A4.585 4.585 0 008.25 19.25h4.584a.92.92 0 00.916-.917.92.92 0 00-.916-.916H8.25a2.746 2.746 0 01-2.75-2.75zm12.174 3.071l-3.456-3.455a1.831 1.831 0 00-1.293-.532h-2.383v-3.373c1 .815 2.438 1.558 3.85 1.851a.982.982 0 001.192-.953c0-.486-.358-.88-.844-.963-1.301-.22-2.64-.925-3.437-1.805l-1.284-1.421a1.967 1.967 0 00-.632-.459 2.04 2.04 0 00-.88-.21h-.028a2.066 2.066 0 00-2.062 2.062v5.27a2.746 2.746 0 002.75 2.75h4.648l2.548 2.55a.935.935 0 001.31 0 .919.919 0 000-1.312z" fill="#8DD3BB"/></svg>