<svg width="24" height="24" fill="none" xmlns="http://www.w3.org/2000/svg"><path d="M12 14.25a2.25 2.25 0 100-4.5 2.25 2.25 0 000 4.5z" fill="#000"/><path d="M22.05 14.063l-.023-.018-1.479-1.16a.756.756 0 01-.286-.625v-.542a.75.75 0 01.287-.62l1.479-1.16.022-.018a1.251 1.251 0 00.276-1.597L20.324 4.86a1.259 1.259 0 00-1.527-.54l-.017.006-1.739.7a.747.747 0 01-.678-.06 8.417 8.417 0 00-.469-.275.747.747 0 01-.383-.554l-.262-1.856-.006-.034a1.276 1.276 0 00-1.239-1.027H9.996a1.262 1.262 0 00-1.24 1.05l-.004.026-.262 1.86a.75.75 0 01-.38.553c-.16.086-.316.177-.47.273a.746.746 0 01-.676.06l-1.74-.704-.017-.006a1.26 1.26 0 00-1.522.531l-.006.01L1.674 8.34a1.252 1.252 0 00.276 1.598l.023.018 1.479 1.16a.755.755 0 01.286.625v.542a.75.75 0 01-.287.62l-1.478 1.16-.023.018a1.25 1.25 0 00-.276 1.597l2.002 3.464a1.258 1.258 0 001.527.54l.017-.006 1.737-.7a.747.747 0 01.678.06c.154.098.31.19.47.275a.747.747 0 01.383.554l.26 1.856.006.034a1.275 1.275 0 001.242 1.027h4.008a1.262 1.262 0 001.24-1.05l.005-.026.26-1.86a.75.75 0 01.384-.553 8.32 8.32 0 00.469-.273.747.747 0 01.676-.06l1.74.701.017.007a1.26 1.26 0 001.529-.542l2.002-3.464a1.251 1.251 0 00-.276-1.598zm-6.304-1.887a3.75 3.75 0 11-3.922-3.922 3.76 3.76 0 013.922 3.922z" fill="#000"/></svg>