<svg width="24" height="25" fill="none" xmlns="http://www.w3.org/2000/svg"><g clip-path="url(#clip0_126_437)"><path d="M.96 4.706a.96.96 0 00-.96.96v13.152c0 .53.43.96.96.96h22.08c.53 0 .96-.43.96-.96V5.666a.96.96 0 00-.96-.96H.96zm13.374 4.491c.584 0 1.052.13 1.35.25l-.203 1.283-.135-.069a2.62 2.62 0 00-1.128-.227c-.59 0-.863.263-.863.51-.003.277.319.46.845.734.87.422 1.271.935 1.266 1.608-.012 1.23-1.04 2.024-2.624 2.024-.675-.008-1.326-.15-1.678-.316l.211-1.326.194.095c.495.22.816.31 1.419.31.433 0 .898-.181.901-.578.003-.26-.194-.444-.78-.734-.572-.284-1.33-.758-1.321-1.61.009-1.15 1.057-1.954 2.546-1.954zm-12.212.189h2.433c.327.012.592.117.683.473l.524 2.706v.001l.158.811 1.476-3.991h1.598l-2.375 5.842-1.596.002-1.27-4.715c.756.4 1.4.864 1.772 1.502a4.227 4.227 0 00-.384-.654c-.19-.262-.597-.6-.767-.743-.594-.5-1.4-.904-2.27-1.118l.018-.116zm7.507.006h1.563l-.978 5.834H8.652l.977-5.834zm8.824 0h1.184l1.238 5.834h-1.42s-.14-.67-.187-.875l-1.96-.002c-.06.158-.323.877-.323.877h-1.607l2.273-5.35c.161-.38.436-.484.802-.484zm.116 1.57c-.077.216-.21.567-.201.551l-.607 1.616h1.264l-.353-1.67-.103-.498z" fill="#1434CB"/></g><defs><clipPath id="clip0_126_437"><path fill="#fff" transform="translate(0 .242)" d="M0 0h24v24H0z"/></clipPath></defs></svg>