<svg width="24" height="24" fill="none" xmlns="http://www.w3.org/2000/svg"><path d="M16.25 14.264a6.375 6.375 0 00-8.471 0 .985.985 0 101.308 1.471 4.406 4.406 0 015.854 0 .985.985 0 001.309-1.472v.001z" fill="#000"/><path d="M12.014 8.61a10.386 10.386 0 00-7.116 2.81.984.984 0 101.344 1.437 8.45 8.45 0 0111.543 0 .984.984 0 101.344-1.437 10.381 10.381 0 00-7.116-2.81z" fill="#000"/><path d="M21.657 8.244a14.485 14.485 0 00-19.287 0A.984.984 0 103.683 9.71a12.516 12.516 0 0116.66 0 .984.984 0 101.313-1.467zm-9.644 11.697a1.5 1.5 0 100-3 1.5 1.5 0 000 3z" fill="#000"/></svg>