<svg width="24" height="24" fill="none" xmlns="http://www.w3.org/2000/svg"><path d="M3.75 7.125v12A1.88 1.88 0 0 0 5.625 21h12.75a1.88 1.88 0 0 0 1.875-1.875v-12" stroke="#000" stroke-width="1.5" stroke-linecap="round" stroke-linejoin="round"/><path d="M20.438 3H3.563c-.725 0-1.313.588-1.313 1.313v1.125c0 .724.588 1.312 1.313 1.312h16.875c.724 0 1.312-.588 1.312-1.313V4.313c0-.724-.588-1.312-1.313-1.312z" stroke="#000" stroke-width="1.5" stroke-linejoin="round"/><path d="m15 14.25-3 3-3-3m3 1.964V10.5" stroke="#000" stroke-width="1.5" stroke-linecap="round" stroke-linejoin="round"/></svg>