<svg width="24" height="24" fill="none" xmlns="http://www.w3.org/2000/svg"><path d="M5.813 10.25H3.938a.937.937 0 0 0-.938.938v7.124c0 .518.42.938.938.938h1.874c.518 0 .938-.42.938-.938v-7.125a.937.937 0 0 0-.938-.937zM12.563 8h-1.876a.937.937 0 0 0-.937.938v9.374c0 .518.42.938.938.938h1.874c.518 0 .938-.42.938-.938V8.938A.937.937 0 0 0 12.562 8zM19.295 5H17.42a.938.938 0 0 0-.938.938v12.375c0 .517.42.937.938.937h1.875c.518 0 .937-.42.937-.938V5.938A.937.937 0 0 0 19.295 5z" stroke="#000" stroke-width="1.5" stroke-linecap="round" stroke-linejoin="round"/></svg>