<svg width="24" height="24" fill="none" xmlns="http://www.w3.org/2000/svg"><path d="M20.25 6H3.75A2.25 2.25 0 0 0 1.5 8.25v10.5A2.25 2.25 0 0 0 3.75 21h16.5a2.25 2.25 0 0 0 2.25-2.25V8.25A2.25 2.25 0 0 0 20.25 6z" stroke="#000" stroke-width="1.5" stroke-linejoin="round"/><path d="M6.75 6V4.5A1.5 1.5 0 0 1 8.25 3h7.5a1.5 1.5 0 0 1 1.5 1.5V6m5.25 5.25h-21m13.5 0v1.125a.375.375 0 0 1-.375.375h-5.25A.375.375 0 0 1 9 12.375V11.25" stroke="#000" stroke-width="1.5" stroke-linecap="round" stroke-linejoin="round"/></svg>