<svg width="24" height="24" fill="none" xmlns="http://www.w3.org/2000/svg"><path d="M19.5 3.75h-15A2.25 2.25 0 0 0 2.25 6v13.5a2.25 2.25 0 0 0 2.25 2.25h15a2.25 2.25 0 0 0 2.25-2.25V6a2.25 2.25 0 0 0-2.25-2.25z" stroke="#000" stroke-width="1.5" stroke-linejoin="round"/><path d="M13.875 12a1.125 1.125 0 1 0 0-2.25 1.125 1.125 0 0 0 0 2.25zM17.625 12a1.125 1.125 0 1 0 0-2.25 1.125 1.125 0 0 0 0 2.25zM13.875 15.75a1.125 1.125 0 1 0 0-2.25 1.125 1.125 0 0 0 0 2.25zM17.625 15.75a1.125 1.125 0 1 0 0-2.25 1.125 1.125 0 0 0 0 2.25zM6.375 15.75a1.125 1.125 0 1 0 0-2.25 1.125 1.125 0 0 0 0 2.25zM10.125 15.75a1.125 1.125 0 1 0 0-2.25 1.125 1.125 0 0 0 0 2.25zM6.375 19.5a1.125 1.125 0 1 0 0-2.25 1.125 1.125 0 0 0 0 2.25zM10.125 19.5a1.125 1.125 0 1 0 0-2.25 1.125 1.125 0 0 0 0 2.25zM13.875 19.5a1.125 1.125 0 1 0 0-2.25 1.125 1.125 0 0 0 0 2.25z" fill="#000"/><path d="M6 2.25v1.5m12-1.5v1.5" stroke="#000" stroke-width="1.5" stroke-linecap="round" stroke-linejoin="round"/><path d="M21.75 7.5H2.25" stroke="#000" stroke-width="1.5" stroke-linejoin="round"/></svg>