<svg width="24" height="24" fill="none" xmlns="http://www.w3.org/2000/svg"><path d="M21.653 12.237c-.094-.223-.315-.367-.547-.445L12.332 8.3a1.115 1.115 0 0 0-.664 0l-8.766 3.493c-.234.073-.46.223-.554.447-.092.223-.137.439-.046.706l2.18 5.585a.35.35 0 0 0 .35.218c1.252-.079 2.36-.714 3.206-1.523a.359.359 0 0 1 .492 0c.905.867 2.11 1.523 3.47 1.523 1.36 0 2.557-.656 3.463-1.525a.36.36 0 0 1 .492 0c.847.81 1.955 1.446 3.206 1.525a.35.35 0 0 0 .35-.216l2.188-5.586c.093-.224.047-.488-.046-.711z" stroke="#000" stroke-width="1.5" stroke-miterlimit="10"/><path d="M19.5 22.178a.32.32 0 0 0-.167-.28c-1.27-.683-2.427-1.727-2.936-2.25a.47.47 0 0 0-.596-.072c-2.36 1.52-5.232 1.521-7.591.003a.473.473 0 0 0-.601.073c-.505.529-1.65 1.56-2.927 2.238a.334.334 0 0 0-.182.269.316.316 0 0 0 .371.335c.978-.196 1.922-.641 2.822-1.117a.408.408 0 0 1 .375-.003 8.678 8.678 0 0 0 7.87.001.414.414 0 0 1 .379.003c.895.469 1.838.918 2.812 1.115a.315.315 0 0 0 .373-.314H19.5z" fill="#000"/><path d="M15 4.5V3.375a1.128 1.128 0 0 0-1.125-1.125h-3.75A1.128 1.128 0 0 0 9 3.375V4.5m10.5 6.422V6.75a2.256 2.256 0 0 0-2.25-2.25H6.75A2.257 2.257 0 0 0 4.5 6.75v4.313M12 8.605v9.978" stroke="#000" stroke-width="1.5" stroke-linecap="round" stroke-linejoin="round"/></svg>