<svg width="24" height="24" fill="none" xmlns="http://www.w3.org/2000/svg"><path d="M13.5 14.25v-.844c0-.78-.668-1.406-1.5-1.406s-1.5.627-1.5 1.406v.844" stroke="#000" stroke-width="1.5" stroke-linecap="round" stroke-linejoin="round"/><path d="M14.25 19.5h-4.5a1.5 1.5 0 0 1-1.5-1.5v-2.25a1.5 1.5 0 0 1 1.5-1.5h4.5a1.5 1.5 0 0 1 1.5 1.5V18a1.5 1.5 0 0 1-1.5 1.5z" fill="#000"/><path d="M19.5 10.371V19.5a2.25 2.25 0 0 1-2.25 2.25H6.75A2.25 2.25 0 0 1 4.5 19.5v-15a2.25 2.25 0 0 1 2.25-2.25h4.629a1.5 1.5 0 0 1 1.06.44l6.622 6.62a1.5 1.5 0 0 1 .439 1.061z" stroke="#000" stroke-width="1.5" stroke-linejoin="round"/><path d="M12 2.385V8.25a1.5 1.5 0 0 0 1.5 1.5h5.865" stroke="#000" stroke-width="1.5" stroke-linecap="round" stroke-linejoin="round"/></svg>