<svg width="24" height="24" fill="none" xmlns="http://www.w3.org/2000/svg"><path d="M4.477 4.875h15c.175 0 .35.011.524.033a3.092 3.092 0 0 0-3.634-2.604L4.031 4.41h-.014a3.094 3.094 0 0 0-1.925 1.225 4.105 4.105 0 0 1 2.385-.76zm15 1.125h-15a3.003 3.003 0 0 0-3 3v9a3.003 3.003 0 0 0 3 3h15a3.003 3.003 0 0 0 3-3V9a3.004 3.004 0 0 0-3-3zm-2.227 9a1.5 1.5 0 1 1 0-3 1.5 1.5 0 0 1 0 3z" fill="#000"/><path d="M1.5 12.164V7.5c0-1.016.563-2.719 2.515-3.088 1.657-.31 3.298-.31 3.298-.31s1.078.75.187.75C6.61 4.852 6.633 6 7.5 6s0 1.102 0 1.102l-3.492 3.96L1.5 12.165z" fill="#000"/></svg>