<svg width="24" height="24" fill="none" xmlns="http://www.w3.org/2000/svg"><path d="M16.25 14.264a6.375 6.375 0 0 0-8.471 0 .985.985 0 1 0 1.308 1.471 4.406 4.406 0 0 1 5.854 0 .985.985 0 0 0 1.309-1.472v.001z" fill="#000"/><path d="M12.014 8.61c-2.643-.003-5.188 1.002-7.116 2.81a.984.984 0 1 0 1.344 1.437 8.45 8.45 0 0 1 11.543 0 .984.984 0 1 0 1.344-1.437 10.381 10.381 0 0 0-7.116-2.81z" fill="#000"/><path d="M21.657 8.244a14.485 14.485 0 0 0-19.287 0A.984.984 0 1 0 3.683 9.71a12.516 12.516 0 0 1 16.66 0 .984.984 0 1 0 1.313-1.467zM12.013 19.941a1.5 1.5 0 1 0 0-3 1.5 1.5 0 0 0 0 3z" fill="#000"/></svg>