<svg width="400" height="305" fill="none" xmlns="http://www.w3.org/2000/svg"><g clip-path="url(#a)"><path d="M157.25 376.763h82.213c.675 0 1.244-1.807 1.244-3.907v-251.6c0-2.112-.569-3.906-1.244-3.906H157.25c-.375 0-.65.406-.856 1.05l-.013.131s-.025.013-.037.132a8.173 8.173 0 00-.331 2.606v251.6c0 2.087.556 3.894 1.237 3.894z" fill="#DFAD92"/><path d="M194.438 376.763h45.556c.387 0 .694-1.807.694-3.907v-251.6c0-2.112-.313-3.906-.694-3.906h-45.55c-.206 0-.363.406-.463 1.05l-.012.131s-.013.013-.025.132a14.033 14.033 0 00-.181 2.606v251.6c0 2.087.3 3.894.675 3.894z" fill="#A4806D"/><path d="M157.25 268.231h82.188c.687 0 1.256-.387 1.256-.843v-54.95c0-.463-.569-.863-1.256-.863h-82.2a1.465 1.465 0 00-.832.231l-.037.025-.05.038a.676.676 0 00-.319.562v54.95c0 .469.544.85 1.238.85" fill="#A4806D"/><path d="M133.688 47h-70.67C28.226 47 0 85.575 0 133.144v105.012h70.669V133.144C70.669 85.575 98.875 47 133.688 47z" fill="#7C9C9F"/><path d="M298.269 47H133.687c-34.812 0-63 38.575-63 86.144v105.012h290.607V133.144c0-47.569-28.213-86.144-63-86.144" fill="#121"/><path d="M145.312 47h-82.28c-34.8 0-63 38.575-63 86.144v105.012h208.324V133.144c0-47.569-28.212-86.144-63-86.144" fill="#65B599"/><path d="M399.394 154.988c.025.037.175.05.175.087v75.394c.009.267-.051.532-.175.769 0 0-.025 0-.025.012h-.025c-.082.156-.232.294-.407.294h-40.818c-.363 0-.644-.513-.644-1.144v-41.044H233.5c-1.356 0-2.531-.243-2.531-.512v-33.838c0-.293 1.175-.525 2.531-.525h165.437c.188 0 .357.188.457.444" fill="#FF8682"/><path d="M140.426 59H66.568C35.34 59 10 95.116 10 139.668V238h187v-98.332C197 95.116 171.683 59 140.426 59z" fill="#546869"/></g><defs><clipPath id="a"><path fill="#fff" d="M0 0h400v305H0z"/></clipPath></defs></svg>