<svg width="20" height="21" fill="none" xmlns="http://www.w3.org/2000/svg"><path d="M19.703 4.261a7.773 7.773 0 01-2.23.611 3.891 3.891 0 001.707-2.148 7.75 7.75 0 01-2.465.941A3.883 3.883 0 0010.1 7.207a11.024 11.024 0 01-8-4.057 3.883 3.883 0 001.2 5.183 3.872 3.872 0 01-1.759-.485v.05a3.883 3.883 0 003.114 3.807 3.91 3.91 0 01-1.753.066 3.884 3.884 0 003.627 2.695 7.79 7.79 0 01-4.822 1.663c-.31 0-.62-.018-.927-.054a10.978 10.978 0 005.95 1.744c7.142 0 11.046-5.915 11.046-11.045 0-.167-.004-.335-.012-.502A7.894 7.894 0 0019.7 4.264l.002-.003z" fill="#121"/></svg>