<svg width="20" height="21" fill="none" xmlns="http://www.w3.org/2000/svg"><g clip-path="url(#a)"><path d="M19.583 5.57a2.322 2.322 0 00-.638-1.059 2.542 2.542 0 00-1.116-.618c-1.564-.413-7.834-.413-7.834-.413a63.852 63.852 0 00-7.825.392 2.633 2.633 0 00-1.115.633A2.414 2.414 0 00.406 5.57 24.242 24.242 0 000 10.147c-.01 1.534.125 3.067.406 4.578.114.4.337.764.646 1.058.31.294.694.507 1.118.619 1.585.412 7.825.412 7.825.412 2.617.03 5.233-.101 7.835-.392.418-.108.801-.32 1.115-.618.304-.289.524-.655.637-1.059A23.68 23.68 0 0020 10.166a22.148 22.148 0 00-.417-4.597zM8 13V7.295l5.217 2.853L8 13z" fill="#121"/></g><defs><clipPath id="a"><path fill="#fff" transform="translate(0 .147)" d="M0 0h20v20H0z"/></clipPath></defs></svg>